PathFileType	4	(X/Y/Z)	1H_nor_med_left.trc
DataRate	CameraRate	NumFrames	NumMarkers	Units	OrigDataRate	OrigDataStartFrame	OrigNumFrames
250.00	250.00	18	18	mm	250.00	1911	7640
Frame#	Time	c7	r_should	l_should	clavicle	r_upa	r_elb_l	r_elb_m	r_low	r_wri_l	r_wri_m	r_met	l_upa	l_elb_l	l_elb_m	l_low	l_wri_l	l_wri_m	l_met
	X1	Y1	Z1	X2	Y2	Z2	X3	Y3	Z3	X4	Y4	Z4	X5	Y5	Z5	X6	Y6	Z6	X7	Y7	Z7	X8	Y8	Z8	X9	Y9	Z9	X10	Y10	Z10	X11	Y11	Z11	X12	Y12	Z12	X13	Y13	Z13	X14	Y14	Z14	X15	Y15	Z15	X16	Y16	Z16	X17	Y17	Z17	X18	Y18	Z18
1911	7.64000	1235.06433	1424.42798	126.40143	1288.82507	1349.24341	288.54144	1244.91711	1368.71143	-40.97339	1342.15759	1279.48694	112.14957	1294.72632	1131.80750	337.21912	1297.44775	1041.14526	353.87045	1226.41333	1015.03815	292.74219	1311.35645	906.24591	346.93616	1325.05261	779.91223	334.44827	1256.43201	783.95282	370.29874	1332.48975	717.81543	381.83011	1280.81250	1175.75146	-129.86240	1306.87122	1113.15356	-146.91901	1253.06018	1065.00745	-77.70372	1366.93506	1123.95667	-68.59072	1399.07043	1181.71851	17.77948	1412.16821	1103.41650	47.51989	1474.43628	1188.58582	63.66068
1912	7.64400	1235.06531	1424.42542	126.42926	1288.79150	1349.20496	288.57089	1244.93665	1368.71741	-40.96280	1342.15112	1279.48755	112.16351	1294.68420	1131.76636	337.21210	1297.39636	1041.11182	353.85330	1226.36694	1015.00317	292.70093	1311.61755	906.20844	346.95187	1324.98438	779.87451	334.40387	1256.35327	783.89288	370.22638	1332.40002	717.76404	381.78012	1280.54578	1175.68188	-129.88237	1306.28552	1113.16089	-147.13202	1252.65771	1064.95471	-77.77202	1367.39575	1122.31506	-67.21521	1399.23987	1180.70776	17.96072	1412.22974	1102.27466	47.41826	1474.71863	1187.23291	63.72474
1913	7.64800	1235.06616	1424.42163	126.46249	1288.77283	1349.15930	288.59918	1244.94885	1368.71899	-40.94888	1342.14343	1279.48718	112.17894	1294.64526	1131.72510	337.20703	1297.33813	1041.06360	353.82928	1226.32239	1014.96112	292.65863	1311.64209	906.16455	346.93338	1324.91663	779.83020	334.36630	1256.27112	783.83508	370.15979	1332.30981	717.70557	381.73462	1280.27563	1175.60388	-129.89867	1305.90283	1112.99084	-147.16660	1252.25085	1064.91516	-77.85461	1366.98401	1122.17847	-67.40068	1399.41589	1179.68140	18.15104	1412.31140	1101.10571	47.26271	1475.00708	1185.85718	63.78818
1914	7.65200	1235.06812	1424.41504	126.49743	1288.75952	1349.11389	288.62503	1244.95667	1368.71472	-40.93491	1342.13403	1279.47913	112.18542	1294.61597	1131.68079	337.20483	1297.29822	1041.01392	353.80667	1226.27637	1014.92188	292.62161	1311.60315	906.12213	346.90561	1324.84741	779.76898	334.32294	1256.19446	783.78540	370.09900	1332.22241	717.64337	381.68628	1280.00012	1175.52124	-129.91020	1305.56555	1112.77014	-147.15263	1251.79834	1064.89539	-77.94088	1365.95093	1123.16748	-68.46948	1399.69531	1176.79492	20.31631	1412.34839	1099.93652	47.10624	1475.41736	1184.36768	63.65052
1915	7.65600	1235.06860	1424.40454	126.52996	1288.74976	1349.07361	288.65295	1244.95959	1368.70667	-40.92982	1342.12244	1279.46777	112.18382	1294.58484	1131.63538	337.19821	1297.26648	1040.97046	353.79294	1226.23535	1014.87921	292.58203	1311.55627	906.06720	346.87256	1324.78076	779.72485	334.28055	1256.12354	783.73553	370.04477	1332.13330	717.58130	381.63550	1279.72986	1175.43506	-129.91574	1305.23840	1112.53455	-147.12190	1251.35474	1064.87231	-78.02740	1365.99072	1122.16541	-68.18272	1400.11951	1171.60535	24.89718	1412.41284	1098.72461	46.95129	1475.99524	1182.72449	63.27935
1916	7.66000	1235.06848	1424.39709	126.56574	1288.74463	1349.03101	288.67578	1244.95239	1368.69592	-40.91932	1342.10938	1279.46045	112.18185	1294.55798	1131.58545	337.18283	1297.23340	1040.92419	353.76901	1226.21289	1014.83057	292.53262	1311.51025	906.00714	346.83243	1324.71655	779.67322	334.23465	1256.05444	783.68750	369.98654	1332.04553	717.51917	381.58691	1279.46582	1175.35303	-129.91376	1304.92407	1112.31433	-147.08862	1250.92847	1064.84827	-78.11435	1366.72046	1119.91553	-67.03632	1400.39563	1169.45862	26.19782	1412.40161	1097.53662	46.78482	1476.36121	1181.23938	63.22815
1917	7.66400	1235.06787	1424.39319	126.60013	1288.74683	1348.98828	288.69836	1244.93860	1368.68628	-40.90683	1342.09558	1279.44897	112.18300	1294.54211	1131.53955	337.16644	1297.20569	1040.87585	353.74118	1226.19202	1014.78503	292.49228	1311.47046	905.95880	346.79657	1324.65479	779.61584	334.18518	1255.98279	783.64508	369.92740	1331.95996	717.45563	381.53946	1279.21436	1175.27808	-129.91078	1304.62646	1112.09595	-147.03822	1250.56140	1064.81323	-78.17619	1367.00378	1118.82153	-67.04007	1399.25720	1167.08142	26.48683	1412.45752	1096.34241	46.59192	1476.68823	1179.78613	63.25576
1918	7.66800	1235.06189	1424.39050	126.63220	1288.75330	1348.94983	288.72046	1244.91663	1368.67383	-40.89160	1342.08435	1279.44226	112.18165	1294.51782	1131.49084	337.14023	1297.16895	1040.82568	353.70999	1226.16882	1014.74622	292.45059	1311.42944	905.91168	346.75372	1324.59619	779.56696	334.14478	1255.91272	783.60339	369.87552	1331.87231	717.39380	381.49078	1278.96021	1175.20935	-129.91093	1304.33655	1111.87366	-146.98465	1250.16870	1064.77759	-78.24693	1366.76624	1118.77002	-67.85205	1396.47620	1163.61548	26.33699	1412.60889	1095.16113	46.42688	1476.99487	1178.33899	63.30323
1919	7.67200	1235.05566	1424.39270	126.66363	1288.76355	1348.91138	288.74908	1244.89612	1368.65466	-40.87844	1342.07458	1279.43872	112.17692	1294.50708	1131.44006	337.12378	1297.14465	1040.78503	353.67902	1226.14954	1014.70233	292.40973	1311.39587	905.86847	346.71603	1324.53772	779.51099	334.10873	1255.84106	783.56805	369.82458	1331.78284	717.33417	381.44485	1278.70007	1175.14746	-129.90065	1304.05078	1111.65479	-146.91917	1249.74829	1064.76135	-78.32164	1366.00110	1119.11328	-68.23891	1396.10217	1161.90747	26.44454	1412.66650	1093.93018	46.31230	1477.30237	1176.88916	63.35297
1920	7.67600	1235.04309	1424.39233	126.69868	1288.76941	1348.86890	288.77310	1244.87549	1368.63611	-40.86166	1342.06287	1279.44116	112.17882	1294.49622	1131.38892	337.10742	1297.12000	1040.74097	353.65021	1226.13916	1014.65631	292.36966	1311.35303	905.81647	346.66821	1324.47681	779.46558	334.06058	1255.76904	783.52740	369.76620	1331.69482	717.27362	381.40231	1278.44360	1175.09631	-129.88107	1303.77075	1111.44519	-146.85548	1249.38635	1064.71936	-78.37933	1366.92554	1117.05981	-67.86983	1396.32446	1160.57288	26.63301	1412.73108	1092.68091	46.22137	1477.61206	1175.41833	63.40589
1921	7.68000	1235.02808	1424.39197	126.73158	1288.76428	1348.83386	288.79538	1244.85522	1368.62158	-40.83975	1342.05237	1279.44702	112.19086	1294.48059	1131.33936	337.07507	1297.09094	1040.68811	353.60416	1226.12244	1014.61267	292.32062	1311.30151	905.75427	346.61752	1324.42151	779.41956	334.01202	1255.70007	783.48743	369.70932	1331.61096	717.21777	381.35553	1278.19763	1175.04297	-129.85696	1303.50220	1111.22937	-146.80063	1249.06580	1064.66174	-78.43456	1366.42529	1116.90576	-67.94190	1396.66699	1159.31128	26.84214	1412.83264	1091.47131	46.13409	1477.91870	1173.94312	63.45747
1922	7.68400	1235.01318	1424.39380	126.76328	1288.75757	1348.79541	288.81830	1244.84021	1368.60547	-40.82256	1342.04626	1279.45166	112.20735	1294.47168	1131.29419	337.04684	1297.07483	1040.64014	353.56342	1226.10339	1014.57990	292.27402	1311.26086	905.70929	346.57077	1324.36914	779.36877	333.97443	1255.62598	783.44635	369.64716	1331.52747	717.16187	381.30820	1277.95776	1174.98657	-129.82568	1303.23804	1111.00989	-146.75159	1246.96741	1065.00659	-78.49538	1365.58057	1117.21716	-68.10699	1398.26526	1159.57080	26.90140	1412.86902	1090.21802	45.99811	1478.23828	1172.44836	63.51738
1923	7.68800	1234.99683	1424.39514	126.79857	1288.74487	1348.75745	288.84531	1244.82739	1368.58960	-40.80187	1342.04236	1279.45703	112.22890	1294.45483	1131.24756	337.01740	1297.04565	1040.59839	353.52710	1226.07678	1014.54987	292.23059	1311.22229	905.67114	346.53204	1324.31274	779.31952	333.94028	1255.55676	783.40253	369.57870	1331.44568	717.10577	381.26230	1277.71729	1174.92126	-129.79562	1302.96606	1110.77686	-146.68929	1242.67175	1065.84521	-78.54490	1365.87231	1115.94434	-67.86057	1400.15527	1160.23010	26.91970	1412.86633	1088.94153	45.85701	1478.54260	1170.92920	63.56007
1924	7.69200	1234.97986	1424.39697	126.83481	1288.73083	1348.72656	288.87723	1244.81958	1368.57080	-40.78283	1342.03650	1279.45935	112.25816	1294.44373	1131.20752	336.99060	1297.02539	1040.55664	353.50696	1226.04773	1014.52148	292.18979	1311.17859	905.61597	346.48880	1324.24963	779.25543	333.90558	1255.48767	783.35870	369.51767	1331.36304	717.04987	381.21906	1277.48181	1174.84595	-129.76532	1302.70068	1110.53357	-146.62135	1241.46179	1065.96790	-78.59518	1364.64673	1116.80457	-68.17011	1399.65027	1158.08508	27.20794	1412.92822	1087.66675	45.75493	1478.85730	1169.38892	63.60273
1925	7.69600	1234.96436	1424.40076	126.86852	1288.71301	1348.69263	288.91522	1244.81848	1368.54810	-40.76267	1342.02905	1279.45789	112.28830	1294.44104	1131.16382	336.97021	1297.00049	1040.51831	353.48895	1226.01758	1014.49811	292.15616	1311.13110	905.55585	346.43576	1324.19067	779.19232	333.86569	1255.41748	783.31702	369.45212	1331.28259	716.99164	381.17801	1277.60242	1174.43384	-129.41449	1302.89771	1109.86938	-146.18132	1240.97534	1065.90942	-78.62620	1364.29211	1116.52393	-68.20955	1401.41614	1160.67053	26.51013	1412.91614	1086.38306	45.64700	1479.16565	1167.83472	63.63527
1926	7.70000	1234.95032	1424.40491	126.89925	1288.68628	1348.66345	288.94949	1244.82422	1368.53088	-40.74218	1342.02380	1279.45801	112.31660	1294.43494	1131.11145	336.94260	1296.97144	1040.48352	353.46808	1225.99243	1014.47894	292.12088	1311.09607	905.50867	346.40558	1324.13672	779.13885	333.82840	1255.34265	783.28052	369.38229	1331.20422	716.93280	381.13513	1278.16174	1173.59546	-128.66103	1303.65051	1108.68787	-145.29077	1240.64978	1065.80859	-78.64875	1365.12805	1116.11230	-69.94359	1401.61914	1161.00525	25.92889	1412.89014	1085.07227	45.51509	1479.47656	1166.26404	63.66620
1927	7.70400	1234.93628	1424.40198	126.92593	1288.65662	1348.63562	288.98767	1244.83411	1368.51257	-40.72468	1342.02161	1279.45276	112.34630	1294.42676	1131.06958	336.92673	1296.94080	1040.44702	353.44910	1225.96448	1014.45746	292.08655	1311.05737	905.45416	346.37549	1324.07886	779.08350	333.77774	1255.28247	783.24512	369.32773	1331.12524	716.87726	381.09271	1278.13171	1173.32104	-128.45575	1303.64795	1108.20129	-145.01961	1240.39111	1065.70447	-78.66608	1366.23792	1115.65015	-72.07622	1402.67285	1158.89514	27.19694	1412.93250	1083.75256	45.41312	1480.00977	1164.24414	64.32511
1928	7.70800	1234.92395	1424.39612	126.95816	1288.62537	1348.60864	289.02679	1244.85352	1368.48706	-40.70709	1342.01404	1279.44019	112.38266	1294.40881	1131.02136	336.91470	1296.91260	1040.39282	353.42868	1225.94434	1014.43243	292.05682	1310.99927	905.39435	346.34500	1324.01733	779.01062	333.73419	1255.21875	783.21289	369.28146	1331.04443	716.81848	381.05457	1277.95813	1173.18103	-128.39799	1303.46521	1107.88647	-144.90512	1240.16479	1065.61499	-78.65894	1365.44214	1114.80737	-70.79501	1402.77710	1158.24451	27.60821	1412.96130	1082.44360	45.31728	1480.81689	1161.67261	65.79434
